<svg xmlns="http://www.w3.org/2000/svg" width="913" height="275" viewBox="0 0 913 275" fill="none">
  <g filter="url(#filter0_d_7_272)">
    <mask id="path-1-outside-1_7_272" maskUnits="userSpaceOnUse" x="40" y="18" width="833" height="195" fill="black">
      <rect fill="white" x="40" y="18" width="833" height="195"/>
      <path d="M49 62.036C49 56.7667 50.0893 52.08 52.268 47.976C54.4973 43.8213 57.6387 40.604 61.692 38.324C65.7453 35.9933 70.4067 34.828 75.676 34.828C82.364 34.828 87.988 36.6267 92.548 40.224C97.108 43.7707 100.047 48.6093 101.364 54.74H85.328C84.3653 52.7133 83.0227 51.168 81.3 50.104C79.628 49.04 77.6773 48.508 75.448 48.508C72.0027 48.508 69.2413 49.7493 67.164 52.232C65.1373 54.664 64.124 57.932 64.124 62.036C64.124 66.1907 65.1373 69.5093 67.164 71.992C69.2413 74.424 72.0027 75.64 75.448 75.64C77.6773 75.64 79.628 75.108 81.3 74.044C83.0227 72.98 84.3653 71.4347 85.328 69.408H101.364C100.047 75.5387 97.108 80.4027 92.548 84C87.988 87.5467 82.364 89.32 75.676 89.32C70.4067 89.32 65.7453 88.18 61.692 85.9C57.6387 83.5693 54.4973 80.352 52.268 76.248C50.0893 72.0933 49 67.356 49 62.036Z"/>
      <path d="M149.154 67.128C149.154 68.2933 149.078 69.4587 148.926 70.624H120.73C120.882 72.9547 121.515 74.7027 122.63 75.868C123.795 76.9827 125.264 77.54 127.038 77.54C129.52 77.54 131.294 76.4253 132.358 74.196H148.242C147.583 77.1347 146.291 79.7693 144.366 82.1C142.491 84.38 140.11 86.1787 137.222 87.496C134.334 88.8133 131.142 89.472 127.646 89.472C123.44 89.472 119.691 88.5853 116.398 86.812C113.155 85.0387 110.596 82.5053 108.722 79.212C106.898 75.9187 105.986 72.0427 105.986 67.584C105.986 63.1253 106.898 59.2747 108.722 56.032C110.546 52.7387 113.079 50.2053 116.322 48.432C119.615 46.6587 123.39 45.772 127.646 45.772C131.851 45.772 135.575 46.6333 138.818 48.356C142.06 50.0787 144.594 52.5613 146.418 55.804C148.242 58.996 149.154 62.7707 149.154 67.128ZM133.954 63.404C133.954 61.58 133.346 60.1613 132.13 59.148C130.914 58.084 129.394 57.552 127.57 57.552C125.746 57.552 124.251 58.0587 123.086 59.072C121.92 60.0347 121.16 61.4787 120.806 63.404H133.954Z"/>
      <path d="M170.146 32.7V88.94H155.25V32.7H170.146Z"/>
      <path d="M219.365 67.128C219.365 68.2933 219.289 69.4587 219.137 70.624H190.941C191.093 72.9547 191.726 74.7027 192.841 75.868C194.006 76.9827 195.475 77.54 197.249 77.54C199.731 77.54 201.505 76.4253 202.569 74.196H218.453C217.794 77.1347 216.502 79.7693 214.577 82.1C212.702 84.38 210.321 86.1787 207.433 87.496C204.545 88.8133 201.353 89.472 197.857 89.472C193.651 89.472 189.902 88.5853 186.609 86.812C183.366 85.0387 180.807 82.5053 178.933 79.212C177.109 75.9187 176.197 72.0427 176.197 67.584C176.197 63.1253 177.109 59.2747 178.933 56.032C180.757 52.7387 183.29 50.2053 186.533 48.432C189.826 46.6587 193.601 45.772 197.857 45.772C202.062 45.772 205.786 46.6333 209.029 48.356C212.271 50.0787 214.805 52.5613 216.629 55.804C218.453 58.996 219.365 62.7707 219.365 67.128ZM204.165 63.404C204.165 61.58 203.557 60.1613 202.341 59.148C201.125 58.084 199.605 57.552 197.781 57.552C195.957 57.552 194.462 58.0587 193.297 59.072C192.131 60.0347 191.371 61.4787 191.017 63.404H204.165Z"/>
      <path d="M240.357 52.232C241.522 50.2053 243.169 48.6347 245.297 47.52C247.425 46.3547 249.933 45.772 252.821 45.772C256.215 45.772 259.281 46.6587 262.017 48.432C264.803 50.2053 266.982 52.7387 268.553 56.032C270.174 59.3253 270.985 63.176 270.985 67.584C270.985 71.992 270.174 75.868 268.553 79.212C266.982 82.5053 264.803 85.0387 262.017 86.812C259.281 88.5853 256.215 89.472 252.821 89.472C249.933 89.472 247.425 88.9147 245.297 87.8C243.169 86.6347 241.522 85.0387 240.357 83.012V88.94H225.461V32.7H240.357V52.232ZM255.861 67.584C255.861 64.7973 255.101 62.644 253.581 61.124C252.111 59.5533 250.287 58.768 248.109 58.768C245.93 58.768 244.081 59.5533 242.561 61.124C241.091 62.6947 240.357 64.848 240.357 67.584C240.357 70.3707 241.091 72.5493 242.561 74.12C244.081 75.6907 245.93 76.476 248.109 76.476C250.287 76.476 252.111 75.6907 253.581 74.12C255.101 72.4987 255.861 70.32 255.861 67.584Z"/>
      <path d="M292.013 53.828C293.685 51.396 295.712 49.4707 298.093 48.052C300.474 46.6333 303.033 45.924 305.769 45.924V61.808H301.589C298.346 61.808 295.94 62.4413 294.369 63.708C292.798 64.9747 292.013 67.1787 292.013 70.32V88.94H277.117V46.304H292.013V53.828Z"/>
      <path d="M308.677 67.584C308.677 63.176 309.462 59.3253 311.033 56.032C312.654 52.7387 314.833 50.2053 317.569 48.432C320.356 46.6587 323.447 45.772 326.841 45.772C329.78 45.772 332.313 46.3547 334.441 47.52C336.569 48.6853 338.216 50.256 339.381 52.232V46.304H354.277V88.94H339.381V83.012C338.216 84.988 336.544 86.5587 334.365 87.724C332.237 88.8893 329.729 89.472 326.841 89.472C323.447 89.472 320.356 88.5853 317.569 86.812C314.833 85.0387 312.654 82.5053 311.033 79.212C309.462 75.868 308.677 71.992 308.677 67.584ZM339.381 67.584C339.381 64.848 338.621 62.6947 337.101 61.124C335.632 59.5533 333.808 58.768 331.629 58.768C329.4 58.768 327.55 59.5533 326.081 61.124C324.612 62.644 323.877 64.7973 323.877 67.584C323.877 70.32 324.612 72.4987 326.081 74.12C327.55 75.6907 329.4 76.476 331.629 76.476C333.808 76.476 335.632 75.6907 337.101 74.12C338.621 72.5493 339.381 70.3707 339.381 67.584Z"/>
      <path d="M387.921 76.248V88.94H381.461C370.568 88.94 365.121 83.544 365.121 72.752V58.692H359.877V46.304H365.121V35.968H380.093V46.304H387.845V58.692H380.093V72.98C380.093 74.1453 380.347 74.9813 380.853 75.488C381.411 75.9947 382.323 76.248 383.589 76.248H387.921Z"/>
      <path d="M402.278 42.352C399.643 42.352 397.515 41.6427 395.894 40.224C394.323 38.7547 393.538 36.9307 393.538 34.752C393.538 32.5227 394.323 30.6733 395.894 29.204C397.515 27.7347 399.643 27 402.278 27C404.862 27 406.939 27.7347 408.51 29.204C410.131 30.6733 410.942 32.5227 410.942 34.752C410.942 36.9307 410.131 38.7547 408.51 40.224C406.939 41.6427 404.862 42.352 402.278 42.352ZM409.65 46.304V88.94H394.754V46.304H409.65Z"/>
      <path d="M446.025 45.924C450.939 45.924 454.841 47.5707 457.729 50.864C460.617 54.1067 462.061 58.5147 462.061 64.088V88.94H447.165V66.064C447.165 63.632 446.531 61.732 445.265 60.364C443.998 58.9453 442.301 58.236 440.173 58.236C437.943 58.236 436.195 58.9453 434.929 60.364C433.662 61.732 433.029 63.632 433.029 66.064V88.94H418.133V46.304H433.029V52.384C434.346 50.4587 436.119 48.9133 438.349 47.748C440.578 46.532 443.137 45.924 446.025 45.924Z"/>
      <path d="M485.966 45.772C488.854 45.772 491.362 46.3547 493.49 47.52C495.669 48.6853 497.341 50.256 498.506 52.232V46.304H513.402V88.484C513.402 92.4867 512.642 96.084 511.122 99.276C509.602 102.519 507.221 105.103 503.978 107.028C500.786 108.953 496.733 109.916 491.818 109.916C485.231 109.916 479.962 108.371 476.01 105.28C472.058 102.189 469.803 97.984 469.246 92.664H483.914C484.218 94.032 484.978 95.096 486.194 95.856C487.41 96.616 488.981 96.996 490.906 96.996C495.973 96.996 498.506 94.1587 498.506 88.484V83.012C497.341 84.988 495.669 86.5587 493.49 87.724C491.362 88.8893 488.854 89.472 485.966 89.472C482.572 89.472 479.481 88.5853 476.694 86.812C473.958 85.0387 471.779 82.5053 470.158 79.212C468.587 75.868 467.802 71.992 467.802 67.584C467.802 63.176 468.587 59.3253 470.158 56.032C471.779 52.7387 473.958 50.2053 476.694 48.432C479.481 46.6587 482.572 45.772 485.966 45.772ZM498.506 67.584C498.506 64.848 497.746 62.6947 496.226 61.124C494.757 59.5533 492.933 58.768 490.754 58.768C488.525 58.768 486.675 59.5533 485.206 61.124C483.737 62.644 483.002 64.7973 483.002 67.584C483.002 70.32 483.737 72.4987 485.206 74.12C486.675 75.6907 488.525 76.476 490.754 76.476C492.933 76.476 494.757 75.6907 496.226 74.12C497.746 72.5493 498.506 70.3707 498.506 67.584Z"/>
      <path d="M534.689 77.008C539.604 73.1573 543.632 69.8387 546.773 67.052C549.915 64.2653 552.549 61.4027 554.677 58.464C556.805 55.4747 557.869 52.6373 557.869 49.952C557.869 48.3307 557.489 47.064 556.729 46.152C556.02 45.24 554.956 44.784 553.537 44.784C552.068 44.784 550.928 45.4173 550.117 46.684C549.307 47.9 548.927 49.6987 548.977 52.08H534.537C534.689 47.5707 535.677 43.8467 537.501 40.908C539.325 37.9187 541.707 35.74 544.645 34.372C547.584 32.9533 550.852 32.244 554.449 32.244C560.681 32.244 565.317 33.7893 568.357 36.88C571.397 39.9707 572.917 43.9733 572.917 48.888C572.917 54.1573 571.144 59.0973 567.597 63.708C564.101 68.3187 559.719 72.448 554.449 76.096H573.449V88.18H534.689V77.008Z"/>
      <path d="M618.847 46.532H596.047V54.968C597.009 53.9547 598.327 53.144 599.999 52.536C601.671 51.928 603.52 51.624 605.547 51.624C609.195 51.624 612.235 52.46 614.667 54.132C617.149 55.804 618.973 58.008 620.139 60.744C621.304 63.48 621.887 66.4693 621.887 69.712C621.887 75.6907 620.189 80.4027 616.795 83.848C613.4 87.2427 608.688 88.94 602.659 88.94C598.453 88.94 594.805 88.2307 591.715 86.812C588.675 85.3427 586.344 83.316 584.723 80.732C583.102 78.148 582.265 75.184 582.215 71.84H596.731C596.883 73.0053 597.389 74.0187 598.251 74.88C599.112 75.7413 600.379 76.172 602.051 76.172C603.824 76.172 605.167 75.564 606.079 74.348C606.991 73.132 607.447 71.5107 607.447 69.484C607.447 67.508 606.965 66.0133 606.003 65C605.04 63.936 603.647 63.404 601.823 63.404C600.455 63.404 599.34 63.7587 598.479 64.468C597.668 65.1267 597.187 65.9627 597.035 66.976H582.519V33.384H618.847V46.532Z"/>
      <path d="M689.958 46.304L662.902 109.232H646.714L656.898 87.116L639.418 46.304H655.986L664.954 70.472L673.618 46.304H689.958Z"/>
      <path d="M734.591 67.128C734.591 68.2933 734.515 69.4587 734.363 70.624H706.167C706.319 72.9547 706.953 74.7027 708.067 75.868C709.233 76.9827 710.702 77.54 712.475 77.54C714.958 77.54 716.731 76.4253 717.795 74.196H733.679C733.021 77.1347 731.729 79.7693 729.803 82.1C727.929 84.38 725.547 86.1787 722.659 87.496C719.771 88.8133 716.579 89.472 713.083 89.472C708.878 89.472 705.129 88.5853 701.835 86.812C698.593 85.0387 696.034 82.5053 694.159 79.212C692.335 75.9187 691.423 72.0427 691.423 67.584C691.423 63.1253 692.335 59.2747 694.159 56.032C695.983 52.7387 698.517 50.2053 701.759 48.432C705.053 46.6587 708.827 45.772 713.083 45.772C717.289 45.772 721.013 46.6333 724.255 48.356C727.498 50.0787 730.031 52.5613 731.855 55.804C733.679 58.996 734.591 62.7707 734.591 67.128ZM719.391 63.404C719.391 61.58 718.783 60.1613 717.567 59.148C716.351 58.084 714.831 57.552 713.007 57.552C711.183 57.552 709.689 58.0587 708.523 59.072C707.358 60.0347 706.598 61.4787 706.243 63.404H719.391Z"/>
      <path d="M738.255 67.584C738.255 63.176 739.041 59.3253 740.611 56.032C742.233 52.7387 744.411 50.2053 747.147 48.432C749.934 46.6587 753.025 45.772 756.419 45.772C759.358 45.772 761.891 46.3547 764.019 47.52C766.147 48.6853 767.794 50.256 768.959 52.232V46.304H783.855V88.94H768.959V83.012C767.794 84.988 766.122 86.5587 763.943 87.724C761.815 88.8893 759.307 89.472 756.419 89.472C753.025 89.472 749.934 88.5853 747.147 86.812C744.411 85.0387 742.233 82.5053 740.611 79.212C739.041 75.868 738.255 71.992 738.255 67.584ZM768.959 67.584C768.959 64.848 768.199 62.6947 766.679 61.124C765.21 59.5533 763.386 58.768 761.207 58.768C758.978 58.768 757.129 59.5533 755.659 61.124C754.19 62.644 753.455 64.7973 753.455 67.584C753.455 70.32 754.19 72.4987 755.659 74.12C757.129 75.6907 758.978 76.476 761.207 76.476C763.386 76.476 765.21 75.6907 766.679 74.12C768.199 72.5493 768.959 70.3707 768.959 67.584Z"/>
      <path d="M807.24 53.828C808.911 51.396 810.938 49.4707 813.32 48.052C815.701 46.6333 818.26 45.924 820.996 45.924V61.808H816.816C813.573 61.808 811.166 62.4413 809.596 63.708C808.025 64.9747 807.24 67.1787 807.24 70.32V88.94H792.344V46.304H807.24V53.828Z"/>
      <path d="M844.5 89.472C840.649 89.472 837.204 88.8387 834.164 87.572C831.174 86.2547 828.793 84.4813 827.02 82.252C825.297 79.972 824.334 77.4133 824.132 74.576H838.572C838.774 75.944 839.408 77.008 840.472 77.768C841.536 78.528 842.853 78.908 844.424 78.908C845.64 78.908 846.602 78.6547 847.312 78.148C848.021 77.6413 848.376 76.9827 848.376 76.172C848.376 75.108 847.793 74.3227 846.628 73.816C845.462 73.3093 843.537 72.752 840.852 72.144C837.812 71.536 835.278 70.852 833.252 70.092C831.225 69.332 829.452 68.0907 827.932 66.368C826.462 64.6453 825.728 62.3147 825.728 59.376C825.728 56.8427 826.412 54.5627 827.78 52.536C829.148 50.4587 831.149 48.812 833.784 47.596C836.469 46.38 839.686 45.772 843.436 45.772C849.009 45.772 853.392 47.14 856.584 49.876C859.776 52.612 861.625 56.2093 862.132 60.668H848.68C848.426 59.3 847.818 58.2613 846.856 57.552C845.944 56.792 844.702 56.412 843.132 56.412C841.916 56.412 840.978 56.64 840.32 57.096C839.712 57.552 839.408 58.1853 839.408 58.996C839.408 60.0093 839.99 60.7947 841.156 61.352C842.321 61.8587 844.196 62.3907 846.78 62.948C849.87 63.6067 852.429 64.3413 854.456 65.152C856.533 65.9627 858.332 67.28 859.852 69.104C861.422 70.8773 862.208 73.3093 862.208 76.4C862.208 78.8827 861.473 81.112 860.004 83.088C858.585 85.064 856.533 86.6347 853.848 87.8C851.213 88.9147 848.097 89.472 844.5 89.472Z"/>
      <path d="M260.994 203.472C256.738 203.472 252.913 202.585 249.518 200.812C246.174 199.039 243.539 196.505 241.614 193.212C239.689 189.919 238.726 186.043 238.726 181.584C238.726 177.176 239.689 173.325 241.614 170.032C243.59 166.739 246.25 164.205 249.594 162.432C252.989 160.659 256.814 159.772 261.07 159.772C265.326 159.772 269.126 160.659 272.47 162.432C275.865 164.205 278.525 166.739 280.45 170.032C282.426 173.325 283.414 177.176 283.414 181.584C283.414 185.992 282.426 189.868 280.45 193.212C278.525 196.505 275.865 199.039 272.47 200.812C269.075 202.585 265.25 203.472 260.994 203.472ZM260.994 190.552C263.071 190.552 264.794 189.792 266.162 188.272C267.581 186.701 268.29 184.472 268.29 181.584C268.29 178.696 267.581 176.492 266.162 174.972C264.794 173.452 263.097 172.692 261.07 172.692C259.043 172.692 257.346 173.452 255.978 174.972C254.61 176.492 253.926 178.696 253.926 181.584C253.926 184.523 254.585 186.752 255.902 188.272C257.219 189.792 258.917 190.552 260.994 190.552Z"/>
      <path d="M312.502 172.692H305.814V202.94H290.842V172.692H286.206V160.304H290.842V159.924C290.842 154.452 292.438 150.272 295.63 147.384C298.873 144.445 303.509 142.976 309.538 142.976C310.754 142.976 311.692 143.001 312.35 143.052V155.744C311.945 155.693 311.388 155.668 310.678 155.668C309.057 155.668 307.866 156.048 307.106 156.808C306.346 157.517 305.916 158.683 305.814 160.304H312.502V172.692Z"/>
      <path d="M374.705 167.22C374.705 170.463 373.945 173.427 372.425 176.112C370.956 178.747 368.701 180.875 365.661 182.496C362.672 184.067 358.998 184.852 354.641 184.852H347.269V202.94H332.373V149.36H354.641C358.948 149.36 362.596 150.12 365.585 151.64C368.625 153.16 370.905 155.263 372.425 157.948C373.945 160.633 374.705 163.724 374.705 167.22ZM353.197 172.996C357.402 172.996 359.505 171.071 359.505 167.22C359.505 163.319 357.402 161.368 353.197 161.368H347.269V172.996H353.197Z"/>
      <path d="M407.821 202.94L397.181 183.18H395.585V202.94H380.689V149.36H404.173C408.48 149.36 412.128 150.12 415.117 151.64C418.107 153.109 420.361 155.161 421.881 157.796C423.401 160.38 424.161 163.293 424.161 166.536C424.161 170.184 423.148 173.401 421.121 176.188C419.145 178.924 416.232 180.875 412.381 182.04L424.465 202.94H407.821ZM395.585 172.996H402.957C404.984 172.996 406.504 172.515 407.517 171.552C408.531 170.589 409.037 169.196 409.037 167.372C409.037 165.649 408.505 164.307 407.441 163.344C406.428 162.331 404.933 161.824 402.957 161.824H395.585V172.996Z"/>
      <path d="M456.623 203.472C451.607 203.472 446.997 202.307 442.791 199.976C438.586 197.595 435.242 194.327 432.759 190.172C430.327 185.967 429.111 181.229 429.111 175.96C429.111 170.691 430.327 165.979 432.759 161.824C435.242 157.619 438.586 154.351 442.791 152.02C446.997 149.689 451.607 148.524 456.623 148.524C461.69 148.524 466.301 149.689 470.455 152.02C474.661 154.351 477.979 157.619 480.411 161.824C482.843 165.979 484.059 170.691 484.059 175.96C484.059 181.229 482.843 185.967 480.411 190.172C477.979 194.327 474.661 197.595 470.455 199.976C466.25 202.307 461.639 203.472 456.623 203.472ZM456.623 189.64C460.423 189.64 463.413 188.399 465.591 185.916C467.821 183.433 468.935 180.115 468.935 175.96C468.935 171.704 467.821 168.36 465.591 165.928C463.413 163.445 460.423 162.204 456.623 162.204C452.773 162.204 449.758 163.445 447.579 165.928C445.401 168.36 444.311 171.704 444.311 175.96C444.311 180.165 445.401 183.509 447.579 185.992C449.758 188.424 452.773 189.64 456.623 189.64Z"/>
      <path d="M488.932 176.036C488.932 170.767 490.021 166.08 492.2 161.976C494.429 157.821 497.57 154.604 501.624 152.324C505.677 149.993 510.338 148.828 515.608 148.828C522.296 148.828 527.92 150.627 532.48 154.224C537.04 157.771 539.978 162.609 541.296 168.74H525.26C524.297 166.713 522.954 165.168 521.232 164.104C519.56 163.04 517.609 162.508 515.38 162.508C511.934 162.508 509.173 163.749 507.096 166.232C505.069 168.664 504.056 171.932 504.056 176.036C504.056 180.191 505.069 183.509 507.096 185.992C509.173 188.424 511.934 189.64 515.38 189.64C517.609 189.64 519.56 189.108 521.232 188.044C522.954 186.98 524.297 185.435 525.26 183.408H541.296C539.978 189.539 537.04 194.403 532.48 198C527.92 201.547 522.296 203.32 515.608 203.32C510.338 203.32 505.677 202.18 501.624 199.9C497.57 197.569 494.429 194.352 492.2 190.248C490.021 186.093 488.932 181.356 488.932 176.036Z"/>
      <path d="M574.037 203.472C569.021 203.472 564.411 202.307 560.205 199.976C556 197.595 552.656 194.327 550.173 190.172C547.741 185.967 546.525 181.229 546.525 175.96C546.525 170.691 547.741 165.979 550.173 161.824C552.656 157.619 556 154.351 560.205 152.02C564.411 149.689 569.021 148.524 574.037 148.524C579.104 148.524 583.715 149.689 587.869 152.02C592.075 154.351 595.393 157.619 597.825 161.824C600.257 165.979 601.473 170.691 601.473 175.96C601.473 181.229 600.257 185.967 597.825 190.172C595.393 194.327 592.075 197.595 587.869 199.976C583.664 202.307 579.053 203.472 574.037 203.472ZM574.037 189.64C577.837 189.64 580.827 188.399 583.005 185.916C585.235 183.433 586.349 180.115 586.349 175.96C586.349 171.704 585.235 168.36 583.005 165.928C580.827 163.445 577.837 162.204 574.037 162.204C570.187 162.204 567.172 163.445 564.993 165.928C562.815 168.36 561.725 171.704 561.725 175.96C561.725 180.165 562.815 183.509 564.993 185.992C567.172 188.424 570.187 189.64 574.037 189.64Z"/>
      <path d="M670.718 149.36V202.94H655.822V173.376L645.714 202.94H633.25L623.066 173.148V202.94H608.17V149.36H626.182L639.634 184.168L652.782 149.36H670.718Z"/>
    </mask>
    <path d="M49 62.036C49 56.7667 50.0893 52.08 52.268 47.976C54.4973 43.8213 57.6387 40.604 61.692 38.324C65.7453 35.9933 70.4067 34.828 75.676 34.828C82.364 34.828 87.988 36.6267 92.548 40.224C97.108 43.7707 100.047 48.6093 101.364 54.74H85.328C84.3653 52.7133 83.0227 51.168 81.3 50.104C79.628 49.04 77.6773 48.508 75.448 48.508C72.0027 48.508 69.2413 49.7493 67.164 52.232C65.1373 54.664 64.124 57.932 64.124 62.036C64.124 66.1907 65.1373 69.5093 67.164 71.992C69.2413 74.424 72.0027 75.64 75.448 75.64C77.6773 75.64 79.628 75.108 81.3 74.044C83.0227 72.98 84.3653 71.4347 85.328 69.408H101.364C100.047 75.5387 97.108 80.4027 92.548 84C87.988 87.5467 82.364 89.32 75.676 89.32C70.4067 89.32 65.7453 88.18 61.692 85.9C57.6387 83.5693 54.4973 80.352 52.268 76.248C50.0893 72.0933 49 67.356 49 62.036Z" stroke="white" stroke-width="18" shape-rendering="crispEdges" mask="url(#path-1-outside-1_7_272)"/>
    <path d="M149.154 67.128C149.154 68.2933 149.078 69.4587 148.926 70.624H120.73C120.882 72.9547 121.515 74.7027 122.63 75.868C123.795 76.9827 125.264 77.54 127.038 77.54C129.52 77.54 131.294 76.4253 132.358 74.196H148.242C147.583 77.1347 146.291 79.7693 144.366 82.1C142.491 84.38 140.11 86.1787 137.222 87.496C134.334 88.8133 131.142 89.472 127.646 89.472C123.44 89.472 119.691 88.5853 116.398 86.812C113.155 85.0387 110.596 82.5053 108.722 79.212C106.898 75.9187 105.986 72.0427 105.986 67.584C105.986 63.1253 106.898 59.2747 108.722 56.032C110.546 52.7387 113.079 50.2053 116.322 48.432C119.615 46.6587 123.39 45.772 127.646 45.772C131.851 45.772 135.575 46.6333 138.818 48.356C142.06 50.0787 144.594 52.5613 146.418 55.804C148.242 58.996 149.154 62.7707 149.154 67.128ZM133.954 63.404C133.954 61.58 133.346 60.1613 132.13 59.148C130.914 58.084 129.394 57.552 127.57 57.552C125.746 57.552 124.251 58.0587 123.086 59.072C121.92 60.0347 121.16 61.4787 120.806 63.404H133.954Z" stroke="white" stroke-width="18" shape-rendering="crispEdges" mask="url(#path-1-outside-1_7_272)"/>
    <path d="M170.146 32.7V88.94H155.25V32.7H170.146Z" stroke="white" stroke-width="18" shape-rendering="crispEdges" mask="url(#path-1-outside-1_7_272)"/>
    <path d="M219.365 67.128C219.365 68.2933 219.289 69.4587 219.137 70.624H190.941C191.093 72.9547 191.726 74.7027 192.841 75.868C194.006 76.9827 195.475 77.54 197.249 77.54C199.731 77.54 201.505 76.4253 202.569 74.196H218.453C217.794 77.1347 216.502 79.7693 214.577 82.1C212.702 84.38 210.321 86.1787 207.433 87.496C204.545 88.8133 201.353 89.472 197.857 89.472C193.651 89.472 189.902 88.5853 186.609 86.812C183.366 85.0387 180.807 82.5053 178.933 79.212C177.109 75.9187 176.197 72.0427 176.197 67.584C176.197 63.1253 177.109 59.2747 178.933 56.032C180.757 52.7387 183.29 50.2053 186.533 48.432C189.826 46.6587 193.601 45.772 197.857 45.772C202.062 45.772 205.786 46.6333 209.029 48.356C212.271 50.0787 214.805 52.5613 216.629 55.804C218.453 58.996 219.365 62.7707 219.365 67.128ZM204.165 63.404C204.165 61.58 203.557 60.1613 202.341 59.148C201.125 58.084 199.605 57.552 197.781 57.552C195.957 57.552 194.462 58.0587 193.297 59.072C192.131 60.0347 191.371 61.4787 191.017 63.404H204.165Z" stroke="white" stroke-width="18" shape-rendering="crispEdges" mask="url(#path-1-outside-1_7_272)"/>
    <path d="M240.357 52.232C241.522 50.2053 243.169 48.6347 245.297 47.52C247.425 46.3547 249.933 45.772 252.821 45.772C256.215 45.772 259.281 46.6587 262.017 48.432C264.803 50.2053 266.982 52.7387 268.553 56.032C270.174 59.3253 270.985 63.176 270.985 67.584C270.985 71.992 270.174 75.868 268.553 79.212C266.982 82.5053 264.803 85.0387 262.017 86.812C259.281 88.5853 256.215 89.472 252.821 89.472C249.933 89.472 247.425 88.9147 245.297 87.8C243.169 86.6347 241.522 85.0387 240.357 83.012V88.94H225.461V32.7H240.357V52.232ZM255.861 67.584C255.861 64.7973 255.101 62.644 253.581 61.124C252.111 59.5533 250.287 58.768 248.109 58.768C245.93 58.768 244.081 59.5533 242.561 61.124C241.091 62.6947 240.357 64.848 240.357 67.584C240.357 70.3707 241.091 72.5493 242.561 74.12C244.081 75.6907 245.93 76.476 248.109 76.476C250.287 76.476 252.111 75.6907 253.581 74.12C255.101 72.4987 255.861 70.32 255.861 67.584Z" stroke="white" stroke-width="18" shape-rendering="crispEdges" mask="url(#path-1-outside-1_7_272)"/>
    <path d="M292.013 53.828C293.685 51.396 295.712 49.4707 298.093 48.052C300.474 46.6333 303.033 45.924 305.769 45.924V61.808H301.589C298.346 61.808 295.94 62.4413 294.369 63.708C292.798 64.9747 292.013 67.1787 292.013 70.32V88.94H277.117V46.304H292.013V53.828Z" stroke="white" stroke-width="18" shape-rendering="crispEdges" mask="url(#path-1-outside-1_7_272)"/>
    <path d="M308.677 67.584C308.677 63.176 309.462 59.3253 311.033 56.032C312.654 52.7387 314.833 50.2053 317.569 48.432C320.356 46.6587 323.447 45.772 326.841 45.772C329.78 45.772 332.313 46.3547 334.441 47.52C336.569 48.6853 338.216 50.256 339.381 52.232V46.304H354.277V88.94H339.381V83.012C338.216 84.988 336.544 86.5587 334.365 87.724C332.237 88.8893 329.729 89.472 326.841 89.472C323.447 89.472 320.356 88.5853 317.569 86.812C314.833 85.0387 312.654 82.5053 311.033 79.212C309.462 75.868 308.677 71.992 308.677 67.584ZM339.381 67.584C339.381 64.848 338.621 62.6947 337.101 61.124C335.632 59.5533 333.808 58.768 331.629 58.768C329.4 58.768 327.55 59.5533 326.081 61.124C324.612 62.644 323.877 64.7973 323.877 67.584C323.877 70.32 324.612 72.4987 326.081 74.12C327.55 75.6907 329.4 76.476 331.629 76.476C333.808 76.476 335.632 75.6907 337.101 74.12C338.621 72.5493 339.381 70.3707 339.381 67.584Z" stroke="white" stroke-width="18" shape-rendering="crispEdges" mask="url(#path-1-outside-1_7_272)"/>
    <path d="M387.921 76.248V88.94H381.461C370.568 88.94 365.121 83.544 365.121 72.752V58.692H359.877V46.304H365.121V35.968H380.093V46.304H387.845V58.692H380.093V72.98C380.093 74.1453 380.347 74.9813 380.853 75.488C381.411 75.9947 382.323 76.248 383.589 76.248H387.921Z" stroke="white" stroke-width="18" shape-rendering="crispEdges" mask="url(#path-1-outside-1_7_272)"/>
    <path d="M402.278 42.352C399.643 42.352 397.515 41.6427 395.894 40.224C394.323 38.7547 393.538 36.9307 393.538 34.752C393.538 32.5227 394.323 30.6733 395.894 29.204C397.515 27.7347 399.643 27 402.278 27C404.862 27 406.939 27.7347 408.51 29.204C410.131 30.6733 410.942 32.5227 410.942 34.752C410.942 36.9307 410.131 38.7547 408.51 40.224C406.939 41.6427 404.862 42.352 402.278 42.352ZM409.65 46.304V88.94H394.754V46.304H409.65Z" stroke="white" stroke-width="18" shape-rendering="crispEdges" mask="url(#path-1-outside-1_7_272)"/>
    <path d="M446.025 45.924C450.939 45.924 454.841 47.5707 457.729 50.864C460.617 54.1067 462.061 58.5147 462.061 64.088V88.94H447.165V66.064C447.165 63.632 446.531 61.732 445.265 60.364C443.998 58.9453 442.301 58.236 440.173 58.236C437.943 58.236 436.195 58.9453 434.929 60.364C433.662 61.732 433.029 63.632 433.029 66.064V88.94H418.133V46.304H433.029V52.384C434.346 50.4587 436.119 48.9133 438.349 47.748C440.578 46.532 443.137 45.924 446.025 45.924Z" stroke="white" stroke-width="18" shape-rendering="crispEdges" mask="url(#path-1-outside-1_7_272)"/>
    <path d="M485.966 45.772C488.854 45.772 491.362 46.3547 493.49 47.52C495.669 48.6853 497.341 50.256 498.506 52.232V46.304H513.402V88.484C513.402 92.4867 512.642 96.084 511.122 99.276C509.602 102.519 507.221 105.103 503.978 107.028C500.786 108.953 496.733 109.916 491.818 109.916C485.231 109.916 479.962 108.371 476.01 105.28C472.058 102.189 469.803 97.984 469.246 92.664H483.914C484.218 94.032 484.978 95.096 486.194 95.856C487.41 96.616 488.981 96.996 490.906 96.996C495.973 96.996 498.506 94.1587 498.506 88.484V83.012C497.341 84.988 495.669 86.5587 493.49 87.724C491.362 88.8893 488.854 89.472 485.966 89.472C482.572 89.472 479.481 88.5853 476.694 86.812C473.958 85.0387 471.779 82.5053 470.158 79.212C468.587 75.868 467.802 71.992 467.802 67.584C467.802 63.176 468.587 59.3253 470.158 56.032C471.779 52.7387 473.958 50.2053 476.694 48.432C479.481 46.6587 482.572 45.772 485.966 45.772ZM498.506 67.584C498.506 64.848 497.746 62.6947 496.226 61.124C494.757 59.5533 492.933 58.768 490.754 58.768C488.525 58.768 486.675 59.5533 485.206 61.124C483.737 62.644 483.002 64.7973 483.002 67.584C483.002 70.32 483.737 72.4987 485.206 74.12C486.675 75.6907 488.525 76.476 490.754 76.476C492.933 76.476 494.757 75.6907 496.226 74.12C497.746 72.5493 498.506 70.3707 498.506 67.584Z" stroke="white" stroke-width="18" shape-rendering="crispEdges" mask="url(#path-1-outside-1_7_272)"/>
    <path d="M534.689 77.008C539.604 73.1573 543.632 69.8387 546.773 67.052C549.915 64.2653 552.549 61.4027 554.677 58.464C556.805 55.4747 557.869 52.6373 557.869 49.952C557.869 48.3307 557.489 47.064 556.729 46.152C556.02 45.24 554.956 44.784 553.537 44.784C552.068 44.784 550.928 45.4173 550.117 46.684C549.307 47.9 548.927 49.6987 548.977 52.08H534.537C534.689 47.5707 535.677 43.8467 537.501 40.908C539.325 37.9187 541.707 35.74 544.645 34.372C547.584 32.9533 550.852 32.244 554.449 32.244C560.681 32.244 565.317 33.7893 568.357 36.88C571.397 39.9707 572.917 43.9733 572.917 48.888C572.917 54.1573 571.144 59.0973 567.597 63.708C564.101 68.3187 559.719 72.448 554.449 76.096H573.449V88.18H534.689V77.008Z" stroke="white" stroke-width="18" shape-rendering="crispEdges" mask="url(#path-1-outside-1_7_272)"/>
    <path d="M618.847 46.532H596.047V54.968C597.009 53.9547 598.327 53.144 599.999 52.536C601.671 51.928 603.52 51.624 605.547 51.624C609.195 51.624 612.235 52.46 614.667 54.132C617.149 55.804 618.973 58.008 620.139 60.744C621.304 63.48 621.887 66.4693 621.887 69.712C621.887 75.6907 620.189 80.4027 616.795 83.848C613.4 87.2427 608.688 88.94 602.659 88.94C598.453 88.94 594.805 88.2307 591.715 86.812C588.675 85.3427 586.344 83.316 584.723 80.732C583.102 78.148 582.265 75.184 582.215 71.84H596.731C596.883 73.0053 597.389 74.0187 598.251 74.88C599.112 75.7413 600.379 76.172 602.051 76.172C603.824 76.172 605.167 75.564 606.079 74.348C606.991 73.132 607.447 71.5107 607.447 69.484C607.447 67.508 606.965 66.0133 606.003 65C605.04 63.936 603.647 63.404 601.823 63.404C600.455 63.404 599.34 63.7587 598.479 64.468C597.668 65.1267 597.187 65.9627 597.035 66.976H582.519V33.384H618.847V46.532Z" stroke="white" stroke-width="18" shape-rendering="crispEdges" mask="url(#path-1-outside-1_7_272)"/>
    <path d="M689.958 46.304L662.902 109.232H646.714L656.898 87.116L639.418 46.304H655.986L664.954 70.472L673.618 46.304H689.958Z" stroke="white" stroke-width="18" shape-rendering="crispEdges" mask="url(#path-1-outside-1_7_272)"/>
    <path d="M734.591 67.128C734.591 68.2933 734.515 69.4587 734.363 70.624H706.167C706.319 72.9547 706.953 74.7027 708.067 75.868C709.233 76.9827 710.702 77.54 712.475 77.54C714.958 77.54 716.731 76.4253 717.795 74.196H733.679C733.021 77.1347 731.729 79.7693 729.803 82.1C727.929 84.38 725.547 86.1787 722.659 87.496C719.771 88.8133 716.579 89.472 713.083 89.472C708.878 89.472 705.129 88.5853 701.835 86.812C698.593 85.0387 696.034 82.5053 694.159 79.212C692.335 75.9187 691.423 72.0427 691.423 67.584C691.423 63.1253 692.335 59.2747 694.159 56.032C695.983 52.7387 698.517 50.2053 701.759 48.432C705.053 46.6587 708.827 45.772 713.083 45.772C717.289 45.772 721.013 46.6333 724.255 48.356C727.498 50.0787 730.031 52.5613 731.855 55.804C733.679 58.996 734.591 62.7707 734.591 67.128ZM719.391 63.404C719.391 61.58 718.783 60.1613 717.567 59.148C716.351 58.084 714.831 57.552 713.007 57.552C711.183 57.552 709.689 58.0587 708.523 59.072C707.358 60.0347 706.598 61.4787 706.243 63.404H719.391Z" stroke="white" stroke-width="18" shape-rendering="crispEdges" mask="url(#path-1-outside-1_7_272)"/>
    <path d="M738.255 67.584C738.255 63.176 739.041 59.3253 740.611 56.032C742.233 52.7387 744.411 50.2053 747.147 48.432C749.934 46.6587 753.025 45.772 756.419 45.772C759.358 45.772 761.891 46.3547 764.019 47.52C766.147 48.6853 767.794 50.256 768.959 52.232V46.304H783.855V88.94H768.959V83.012C767.794 84.988 766.122 86.5587 763.943 87.724C761.815 88.8893 759.307 89.472 756.419 89.472C753.025 89.472 749.934 88.5853 747.147 86.812C744.411 85.0387 742.233 82.5053 740.611 79.212C739.041 75.868 738.255 71.992 738.255 67.584ZM768.959 67.584C768.959 64.848 768.199 62.6947 766.679 61.124C765.21 59.5533 763.386 58.768 761.207 58.768C758.978 58.768 757.129 59.5533 755.659 61.124C754.19 62.644 753.455 64.7973 753.455 67.584C753.455 70.32 754.19 72.4987 755.659 74.12C757.129 75.6907 758.978 76.476 761.207 76.476C763.386 76.476 765.21 75.6907 766.679 74.12C768.199 72.5493 768.959 70.3707 768.959 67.584Z" stroke="white" stroke-width="18" shape-rendering="crispEdges" mask="url(#path-1-outside-1_7_272)"/>
    <path d="M807.24 53.828C808.911 51.396 810.938 49.4707 813.32 48.052C815.701 46.6333 818.26 45.924 820.996 45.924V61.808H816.816C813.573 61.808 811.166 62.4413 809.596 63.708C808.025 64.9747 807.24 67.1787 807.24 70.32V88.94H792.344V46.304H807.24V53.828Z" stroke="white" stroke-width="18" shape-rendering="crispEdges" mask="url(#path-1-outside-1_7_272)"/>
    <path d="M844.5 89.472C840.649 89.472 837.204 88.8387 834.164 87.572C831.174 86.2547 828.793 84.4813 827.02 82.252C825.297 79.972 824.334 77.4133 824.132 74.576H838.572C838.774 75.944 839.408 77.008 840.472 77.768C841.536 78.528 842.853 78.908 844.424 78.908C845.64 78.908 846.602 78.6547 847.312 78.148C848.021 77.6413 848.376 76.9827 848.376 76.172C848.376 75.108 847.793 74.3227 846.628 73.816C845.462 73.3093 843.537 72.752 840.852 72.144C837.812 71.536 835.278 70.852 833.252 70.092C831.225 69.332 829.452 68.0907 827.932 66.368C826.462 64.6453 825.728 62.3147 825.728 59.376C825.728 56.8427 826.412 54.5627 827.78 52.536C829.148 50.4587 831.149 48.812 833.784 47.596C836.469 46.38 839.686 45.772 843.436 45.772C849.009 45.772 853.392 47.14 856.584 49.876C859.776 52.612 861.625 56.2093 862.132 60.668H848.68C848.426 59.3 847.818 58.2613 846.856 57.552C845.944 56.792 844.702 56.412 843.132 56.412C841.916 56.412 840.978 56.64 840.32 57.096C839.712 57.552 839.408 58.1853 839.408 58.996C839.408 60.0093 839.99 60.7947 841.156 61.352C842.321 61.8587 844.196 62.3907 846.78 62.948C849.87 63.6067 852.429 64.3413 854.456 65.152C856.533 65.9627 858.332 67.28 859.852 69.104C861.422 70.8773 862.208 73.3093 862.208 76.4C862.208 78.8827 861.473 81.112 860.004 83.088C858.585 85.064 856.533 86.6347 853.848 87.8C851.213 88.9147 848.097 89.472 844.5 89.472Z" stroke="white" stroke-width="18" shape-rendering="crispEdges" mask="url(#path-1-outside-1_7_272)"/>
    <path d="M260.994 203.472C256.738 203.472 252.913 202.585 249.518 200.812C246.174 199.039 243.539 196.505 241.614 193.212C239.689 189.919 238.726 186.043 238.726 181.584C238.726 177.176 239.689 173.325 241.614 170.032C243.59 166.739 246.25 164.205 249.594 162.432C252.989 160.659 256.814 159.772 261.07 159.772C265.326 159.772 269.126 160.659 272.47 162.432C275.865 164.205 278.525 166.739 280.45 170.032C282.426 173.325 283.414 177.176 283.414 181.584C283.414 185.992 282.426 189.868 280.45 193.212C278.525 196.505 275.865 199.039 272.47 200.812C269.075 202.585 265.25 203.472 260.994 203.472ZM260.994 190.552C263.071 190.552 264.794 189.792 266.162 188.272C267.581 186.701 268.29 184.472 268.29 181.584C268.29 178.696 267.581 176.492 266.162 174.972C264.794 173.452 263.097 172.692 261.07 172.692C259.043 172.692 257.346 173.452 255.978 174.972C254.61 176.492 253.926 178.696 253.926 181.584C253.926 184.523 254.585 186.752 255.902 188.272C257.219 189.792 258.917 190.552 260.994 190.552Z" stroke="white" stroke-width="18" shape-rendering="crispEdges" mask="url(#path-1-outside-1_7_272)"/>
    <path d="M312.502 172.692H305.814V202.94H290.842V172.692H286.206V160.304H290.842V159.924C290.842 154.452 292.438 150.272 295.63 147.384C298.873 144.445 303.509 142.976 309.538 142.976C310.754 142.976 311.692 143.001 312.35 143.052V155.744C311.945 155.693 311.388 155.668 310.678 155.668C309.057 155.668 307.866 156.048 307.106 156.808C306.346 157.517 305.916 158.683 305.814 160.304H312.502V172.692Z" stroke="white" stroke-width="18" shape-rendering="crispEdges" mask="url(#path-1-outside-1_7_272)"/>
    <path d="M374.705 167.22C374.705 170.463 373.945 173.427 372.425 176.112C370.956 178.747 368.701 180.875 365.661 182.496C362.672 184.067 358.998 184.852 354.641 184.852H347.269V202.94H332.373V149.36H354.641C358.948 149.36 362.596 150.12 365.585 151.64C368.625 153.16 370.905 155.263 372.425 157.948C373.945 160.633 374.705 163.724 374.705 167.22ZM353.197 172.996C357.402 172.996 359.505 171.071 359.505 167.22C359.505 163.319 357.402 161.368 353.197 161.368H347.269V172.996H353.197Z" stroke="white" stroke-width="18" shape-rendering="crispEdges" mask="url(#path-1-outside-1_7_272)"/>
    <path d="M407.821 202.94L397.181 183.18H395.585V202.94H380.689V149.36H404.173C408.48 149.36 412.128 150.12 415.117 151.64C418.107 153.109 420.361 155.161 421.881 157.796C423.401 160.38 424.161 163.293 424.161 166.536C424.161 170.184 423.148 173.401 421.121 176.188C419.145 178.924 416.232 180.875 412.381 182.04L424.465 202.94H407.821ZM395.585 172.996H402.957C404.984 172.996 406.504 172.515 407.517 171.552C408.531 170.589 409.037 169.196 409.037 167.372C409.037 165.649 408.505 164.307 407.441 163.344C406.428 162.331 404.933 161.824 402.957 161.824H395.585V172.996Z" stroke="white" stroke-width="18" shape-rendering="crispEdges" mask="url(#path-1-outside-1_7_272)"/>
    <path d="M456.623 203.472C451.607 203.472 446.997 202.307 442.791 199.976C438.586 197.595 435.242 194.327 432.759 190.172C430.327 185.967 429.111 181.229 429.111 175.96C429.111 170.691 430.327 165.979 432.759 161.824C435.242 157.619 438.586 154.351 442.791 152.02C446.997 149.689 451.607 148.524 456.623 148.524C461.69 148.524 466.301 149.689 470.455 152.02C474.661 154.351 477.979 157.619 480.411 161.824C482.843 165.979 484.059 170.691 484.059 175.96C484.059 181.229 482.843 185.967 480.411 190.172C477.979 194.327 474.661 197.595 470.455 199.976C466.25 202.307 461.639 203.472 456.623 203.472ZM456.623 189.64C460.423 189.64 463.413 188.399 465.591 185.916C467.821 183.433 468.935 180.115 468.935 175.96C468.935 171.704 467.821 168.36 465.591 165.928C463.413 163.445 460.423 162.204 456.623 162.204C452.773 162.204 449.758 163.445 447.579 165.928C445.401 168.36 444.311 171.704 444.311 175.96C444.311 180.165 445.401 183.509 447.579 185.992C449.758 188.424 452.773 189.64 456.623 189.64Z" stroke="white" stroke-width="18" shape-rendering="crispEdges" mask="url(#path-1-outside-1_7_272)"/>
    <path d="M488.932 176.036C488.932 170.767 490.021 166.08 492.2 161.976C494.429 157.821 497.57 154.604 501.624 152.324C505.677 149.993 510.338 148.828 515.608 148.828C522.296 148.828 527.92 150.627 532.48 154.224C537.04 157.771 539.978 162.609 541.296 168.74H525.26C524.297 166.713 522.954 165.168 521.232 164.104C519.56 163.04 517.609 162.508 515.38 162.508C511.934 162.508 509.173 163.749 507.096 166.232C505.069 168.664 504.056 171.932 504.056 176.036C504.056 180.191 505.069 183.509 507.096 185.992C509.173 188.424 511.934 189.64 515.38 189.64C517.609 189.64 519.56 189.108 521.232 188.044C522.954 186.98 524.297 185.435 525.26 183.408H541.296C539.978 189.539 537.04 194.403 532.48 198C527.92 201.547 522.296 203.32 515.608 203.32C510.338 203.32 505.677 202.18 501.624 199.9C497.57 197.569 494.429 194.352 492.2 190.248C490.021 186.093 488.932 181.356 488.932 176.036Z" stroke="white" stroke-width="18" shape-rendering="crispEdges" mask="url(#path-1-outside-1_7_272)"/>
    <path d="M574.037 203.472C569.021 203.472 564.411 202.307 560.205 199.976C556 197.595 552.656 194.327 550.173 190.172C547.741 185.967 546.525 181.229 546.525 175.96C546.525 170.691 547.741 165.979 550.173 161.824C552.656 157.619 556 154.351 560.205 152.02C564.411 149.689 569.021 148.524 574.037 148.524C579.104 148.524 583.715 149.689 587.869 152.02C592.075 154.351 595.393 157.619 597.825 161.824C600.257 165.979 601.473 170.691 601.473 175.96C601.473 181.229 600.257 185.967 597.825 190.172C595.393 194.327 592.075 197.595 587.869 199.976C583.664 202.307 579.053 203.472 574.037 203.472ZM574.037 189.64C577.837 189.64 580.827 188.399 583.005 185.916C585.235 183.433 586.349 180.115 586.349 175.96C586.349 171.704 585.235 168.36 583.005 165.928C580.827 163.445 577.837 162.204 574.037 162.204C570.187 162.204 567.172 163.445 564.993 165.928C562.815 168.36 561.725 171.704 561.725 175.96C561.725 180.165 562.815 183.509 564.993 185.992C567.172 188.424 570.187 189.64 574.037 189.64Z" stroke="white" stroke-width="18" shape-rendering="crispEdges" mask="url(#path-1-outside-1_7_272)"/>
    <path d="M670.718 149.36V202.94H655.822V173.376L645.714 202.94H633.25L623.066 173.148V202.94H608.17V149.36H626.182L639.634 184.168L652.782 149.36H670.718Z" stroke="white" stroke-width="18" shape-rendering="crispEdges" mask="url(#path-1-outside-1_7_272)"/>
  </g>
  <defs>
    <filter id="filter0_d_7_272" x="0" y="0" width="912.212" height="274.472" filterUnits="userSpaceOnUse" color-interpolation-filters="sRGB">
      <feFlood flood-opacity="0" result="BackgroundImageFix"/>
      <feColorMatrix in="SourceAlpha" type="matrix" values="0 0 0 0 0 0 0 0 0 0 0 0 0 0 0 0 0 0 127 0" result="hardAlpha"/>
      <feOffset dy="22"/>
      <feGaussianBlur stdDeviation="20"/>
      <feComposite in2="hardAlpha" operator="out"/>
      <feColorMatrix type="matrix" values="0 0 0 0 0.674206 0 0 0 0 0.353299 0 0 0 0 0.925 0 0 0 0.5 0"/>
      <feBlend mode="normal" in2="BackgroundImageFix" result="effect1_dropShadow_7_272"/>
      <feBlend mode="normal" in="SourceGraphic" in2="effect1_dropShadow_7_272" result="shape"/>
    </filter>
  </defs>
</svg>